<svg width="96" height="96" xmlns="http://www.w3.org/2000/svg" xmlns:xlink="http://www.w3.org/1999/xlink" xml:space="preserve" overflow="hidden"><g transform="translate(-1047616 -160)"><path d="M1047675 185.359C1047678 185.208 1047679 183.111 1047679 180.675 1047679 178.239 1047677 176.387 1047675 176.538 1047672 176.689 1047670 178.786 1047670 181.222 1047670 181.222 1047670 181.222 1047670 181.222 1047671 183.658 1047673 185.51 1047675 185.359Z"/><path d="M1047701 166.68 1047691 178 1047690 188.385 1047684 196.874C1047684 196.704 1047684 196.564 1047684 196.461L1047678 194 1047676 191.013 1047685 190.413C1047686 190.348 1047687 189.45 1047687 188.406 1047687 187.363 1047686 186.569 1047685 186.634L1047674 187.334 1047672 186.183C1047672 186.135 1047672 186.083 1047672 186.039 1047672 185.995 1047672 185.979 1047672 185.948L1047672 185.863 1047672 185.871C1047670 184.545 1047668 184.93 1047666 186.752L1047660 194.516C1047660 194.746 1047660 194.993 1047659 195.254L1047659 196.384C1047659 196.593 1047659 196.814 1047659 197.04L1047657 207.078 1047652 213.865C1047651 214.938 1047651 216.53 1047652 217.421 1047653 218.311 1047655 218.162 1047656 217.089L1047662 209.755C1047662 209.397 1047662 208.964 1047662 208.503L1047663 201.764 1047669 206.021 1047669 214.745C1047669 215.334 1047669 215.916 1047669 216.389L1047665 217 1047652 228 1047650 236 1047638 238 1047634 243 1047626 245 1047624 250 1047705 250 1047705 165ZM1047674 207.041 1047674 204.901C1047674 204.01 1047674 203.156 1047673 202.656L1047668 198.838 1047672 192.985 1047676 196.844C1047676 197.016 1047676 197.157 1047677 197.258L1047680 199.017 1047676 200.6ZM1047701 220 1047696 222 1047691 218 1047683 219 1047677 213 1047679 203.615 1047686 201.11 1047694 189.821 1047695 180 1047701 173.023Z"/></g></svg>